<mxfile host="app.diagrams.net" modified="2024-05-07T12:37:57.517Z" agent="Mozilla/5.0 (Windows NT 10.0; Win64; x64) AppleWebKit/537.36 (KHTML, like Gecko) Chrome/124.0.0.0 Safari/537.36" etag="PEgKdyzzYMJywyrZJ5qg" version="24.3.1" type="github">
  <diagram name="第 1 页" id="BJDhjDkov3qVVndtelwK">
    <mxGraphModel dx="1434" dy="746" grid="1" gridSize="10" guides="1" tooltips="1" connect="1" arrows="1" fold="1" page="1" pageScale="1" pageWidth="827" pageHeight="1169" math="0" shadow="0">
      <root>
        <mxCell id="0" />
        <mxCell id="1" parent="0" />
        <mxCell id="56FUEDPAsD5oEL5Eg7jt-1" value="dmacsec" style="rounded=0;whiteSpace=wrap;html=1;" vertex="1" parent="1">
          <mxGeometry x="200" y="300" width="70" height="150" as="geometry" />
        </mxCell>
        <mxCell id="56FUEDPAsD5oEL5Eg7jt-2" value="dmux" style="rounded=0;whiteSpace=wrap;html=1;" vertex="1" parent="1">
          <mxGeometry x="610" y="300" width="70" height="150" as="geometry" />
        </mxCell>
        <mxCell id="56FUEDPAsD5oEL5Eg7jt-3" value="o_wen=1" style="rounded=0;whiteSpace=wrap;html=1;fontSize=7;" vertex="1" parent="1">
          <mxGeometry x="320" y="300" width="30" height="20" as="geometry" />
        </mxCell>
        <mxCell id="56FUEDPAsD5oEL5Eg7jt-4" value="o_wen=0" style="rounded=0;whiteSpace=wrap;html=1;fontSize=7;" vertex="1" parent="1">
          <mxGeometry x="350" y="300" width="30" height="20" as="geometry" />
        </mxCell>
        <mxCell id="56FUEDPAsD5oEL5Eg7jt-5" value="o_wen=1" style="rounded=0;whiteSpace=wrap;html=1;fontSize=7;" vertex="1" parent="1">
          <mxGeometry x="380" y="300" width="30" height="20" as="geometry" />
        </mxCell>
        <mxCell id="56FUEDPAsD5oEL5Eg7jt-6" value="" style="endArrow=classic;html=1;rounded=0;entryX=-0.024;entryY=0.066;entryDx=0;entryDy=0;entryPerimeter=0;" edge="1" parent="1" target="56FUEDPAsD5oEL5Eg7jt-2">
          <mxGeometry width="50" height="50" relative="1" as="geometry">
            <mxPoint x="450" y="309.71" as="sourcePoint" />
            <mxPoint x="480" y="309.71" as="targetPoint" />
          </mxGeometry>
        </mxCell>
        <mxCell id="56FUEDPAsD5oEL5Eg7jt-7" value="" style="endArrow=classic;html=1;rounded=0;" edge="1" parent="1">
          <mxGeometry width="50" height="50" relative="1" as="geometry">
            <mxPoint x="410" y="342" as="sourcePoint" />
            <mxPoint x="270" y="342" as="targetPoint" />
          </mxGeometry>
        </mxCell>
        <mxCell id="56FUEDPAsD5oEL5Eg7jt-8" value="反压透传&lt;br&gt;afull=1" style="edgeLabel;html=1;align=center;verticalAlign=middle;resizable=0;points=[];" vertex="1" connectable="0" parent="56FUEDPAsD5oEL5Eg7jt-7">
          <mxGeometry x="0.0095" y="-2" relative="1" as="geometry">
            <mxPoint as="offset" />
          </mxGeometry>
        </mxCell>
        <mxCell id="56FUEDPAsD5oEL5Eg7jt-9" value="o_wen=0" style="rounded=0;whiteSpace=wrap;html=1;fontSize=7;" vertex="1" parent="1">
          <mxGeometry x="485" y="430" width="30" height="20" as="geometry" />
        </mxCell>
        <mxCell id="56FUEDPAsD5oEL5Eg7jt-10" value="o_wen=1" style="rounded=0;whiteSpace=wrap;html=1;fontSize=7;" vertex="1" parent="1">
          <mxGeometry x="515" y="430" width="30" height="20" as="geometry" />
        </mxCell>
        <mxCell id="56FUEDPAsD5oEL5Eg7jt-11" value="o_wen=0" style="rounded=0;whiteSpace=wrap;html=1;fontSize=7;fillColor=#ffe6cc;strokeColor=#d79b00;" vertex="1" parent="1">
          <mxGeometry x="545" y="430" width="30" height="20" as="geometry" />
        </mxCell>
        <mxCell id="56FUEDPAsD5oEL5Eg7jt-12" value="o_wen=0" style="rounded=0;whiteSpace=wrap;html=1;fontSize=7;fillColor=#ffe6cc;strokeColor=#d79b00;" vertex="1" parent="1">
          <mxGeometry x="410" y="300" width="30" height="20" as="geometry" />
        </mxCell>
        <mxCell id="56FUEDPAsD5oEL5Eg7jt-13" value="" style="endArrow=none;dashed=1;html=1;dashPattern=1 3;strokeWidth=2;rounded=0;entryX=0;entryY=1;entryDx=0;entryDy=0;exitX=0.5;exitY=0;exitDx=0;exitDy=0;" edge="1" parent="1" source="56FUEDPAsD5oEL5Eg7jt-15" target="56FUEDPAsD5oEL5Eg7jt-12">
          <mxGeometry width="50" height="50" relative="1" as="geometry">
            <mxPoint x="470" y="560" as="sourcePoint" />
            <mxPoint x="470" y="440" as="targetPoint" />
          </mxGeometry>
        </mxCell>
        <mxCell id="56FUEDPAsD5oEL5Eg7jt-14" value="" style="endArrow=none;dashed=1;html=1;rounded=0;exitX=0.5;exitY=0;exitDx=0;exitDy=0;" edge="1" parent="1" source="56FUEDPAsD5oEL5Eg7jt-16">
          <mxGeometry width="50" height="50" relative="1" as="geometry">
            <mxPoint x="545" y="560" as="sourcePoint" />
            <mxPoint x="545" y="450" as="targetPoint" />
          </mxGeometry>
        </mxCell>
        <mxCell id="56FUEDPAsD5oEL5Eg7jt-15" value="t1&lt;br&gt;dmux起反压时刻" style="text;html=1;strokeColor=none;fillColor=none;align=center;verticalAlign=middle;whiteSpace=wrap;rounded=0;" vertex="1" parent="1">
          <mxGeometry x="360" y="480" width="100" height="30" as="geometry" />
        </mxCell>
        <mxCell id="56FUEDPAsD5oEL5Eg7jt-16" value="t4&lt;br&gt;dmacsec撤销写实能" style="text;html=1;strokeColor=none;fillColor=none;align=center;verticalAlign=middle;whiteSpace=wrap;rounded=0;" vertex="1" parent="1">
          <mxGeometry x="485" y="650" width="120" height="30" as="geometry" />
        </mxCell>
        <mxCell id="56FUEDPAsD5oEL5Eg7jt-17" value="dipsec" style="rounded=0;whiteSpace=wrap;html=1;" vertex="1" parent="1">
          <mxGeometry x="50" y="300" width="70" height="150" as="geometry" />
        </mxCell>
        <mxCell id="56FUEDPAsD5oEL5Eg7jt-18" value="o_wen=1" style="rounded=0;whiteSpace=wrap;html=1;fontSize=7;" vertex="1" parent="1">
          <mxGeometry x="395" y="430" width="30" height="20" as="geometry" />
        </mxCell>
        <mxCell id="56FUEDPAsD5oEL5Eg7jt-19" value="o_wen=0" style="rounded=0;whiteSpace=wrap;html=1;fontSize=7;" vertex="1" parent="1">
          <mxGeometry x="425" y="430" width="30" height="20" as="geometry" />
        </mxCell>
        <mxCell id="56FUEDPAsD5oEL5Eg7jt-20" value="o_wen=1" style="rounded=0;whiteSpace=wrap;html=1;fontSize=7;" vertex="1" parent="1">
          <mxGeometry x="455" y="430" width="30" height="20" as="geometry" />
        </mxCell>
        <mxCell id="56FUEDPAsD5oEL5Eg7jt-21" value="o_wen=0" style="rounded=0;whiteSpace=wrap;html=1;fontSize=7;" vertex="1" parent="1">
          <mxGeometry x="365" y="430" width="30" height="20" as="geometry" />
        </mxCell>
        <mxCell id="56FUEDPAsD5oEL5Eg7jt-22" value="o_wen=1" style="rounded=0;whiteSpace=wrap;html=1;fontSize=7;" vertex="1" parent="1">
          <mxGeometry x="395" y="430" width="30" height="20" as="geometry" />
        </mxCell>
        <mxCell id="56FUEDPAsD5oEL5Eg7jt-23" value="o_wen=0" style="rounded=0;whiteSpace=wrap;html=1;fontSize=7;" vertex="1" parent="1">
          <mxGeometry x="305" y="430" width="30" height="20" as="geometry" />
        </mxCell>
        <mxCell id="56FUEDPAsD5oEL5Eg7jt-24" value="o_wen=1" style="rounded=0;whiteSpace=wrap;html=1;fontSize=7;" vertex="1" parent="1">
          <mxGeometry x="335" y="430" width="30" height="20" as="geometry" />
        </mxCell>
        <mxCell id="56FUEDPAsD5oEL5Eg7jt-25" value="o_wen=0" style="rounded=0;whiteSpace=wrap;html=1;fontSize=7;fillColor=#ffe6cc;strokeColor=#d79b00;" vertex="1" parent="1">
          <mxGeometry x="575" y="430" width="30" height="20" as="geometry" />
        </mxCell>
        <mxCell id="56FUEDPAsD5oEL5Eg7jt-26" value="" style="endArrow=classic;html=1;rounded=0;" edge="1" parent="1">
          <mxGeometry width="50" height="50" relative="1" as="geometry">
            <mxPoint x="200" y="342" as="sourcePoint" />
            <mxPoint x="120" y="342" as="targetPoint" />
          </mxGeometry>
        </mxCell>
        <mxCell id="56FUEDPAsD5oEL5Eg7jt-27" value="反压透传&lt;br&gt;afull=1" style="edgeLabel;html=1;align=center;verticalAlign=middle;resizable=0;points=[];" vertex="1" connectable="0" parent="56FUEDPAsD5oEL5Eg7jt-26">
          <mxGeometry x="0.0095" y="-2" relative="1" as="geometry">
            <mxPoint as="offset" />
          </mxGeometry>
        </mxCell>
        <mxCell id="56FUEDPAsD5oEL5Eg7jt-28" value="" style="endArrow=classic;html=1;rounded=0;" edge="1" parent="1">
          <mxGeometry width="50" height="50" relative="1" as="geometry">
            <mxPoint x="120" y="530" as="sourcePoint" />
            <mxPoint x="200" y="530" as="targetPoint" />
          </mxGeometry>
        </mxCell>
        <mxCell id="56FUEDPAsD5oEL5Eg7jt-29" value="wen=0" style="edgeLabel;html=1;align=center;verticalAlign=middle;resizable=0;points=[];" vertex="1" connectable="0" parent="56FUEDPAsD5oEL5Eg7jt-28">
          <mxGeometry x="0.0095" y="-2" relative="1" as="geometry">
            <mxPoint as="offset" />
          </mxGeometry>
        </mxCell>
        <mxCell id="56FUEDPAsD5oEL5Eg7jt-30" value="" style="endArrow=none;dashed=1;html=1;rounded=0;exitX=0.5;exitY=0;exitDx=0;exitDy=0;" edge="1" parent="1" source="56FUEDPAsD5oEL5Eg7jt-31">
          <mxGeometry width="50" height="50" relative="1" as="geometry">
            <mxPoint x="120" y="585" as="sourcePoint" />
            <mxPoint x="120" y="450" as="targetPoint" />
          </mxGeometry>
        </mxCell>
        <mxCell id="56FUEDPAsD5oEL5Eg7jt-31" value="t2&lt;br&gt;dipsec收到反压" style="text;html=1;strokeColor=none;fillColor=none;align=center;verticalAlign=middle;whiteSpace=wrap;rounded=0;" vertex="1" parent="1">
          <mxGeometry x="60" y="555" width="120" height="30" as="geometry" />
        </mxCell>
        <mxCell id="56FUEDPAsD5oEL5Eg7jt-32" value="" style="endArrow=none;dashed=1;html=1;rounded=0;exitX=0.5;exitY=0;exitDx=0;exitDy=0;" edge="1" parent="1">
          <mxGeometry width="50" height="50" relative="1" as="geometry">
            <mxPoint x="199.43" y="600" as="sourcePoint" />
            <mxPoint x="199.43" y="450" as="targetPoint" />
          </mxGeometry>
        </mxCell>
        <mxCell id="56FUEDPAsD5oEL5Eg7jt-33" value="" style="endArrow=classic;html=1;rounded=0;" edge="1" parent="1">
          <mxGeometry width="50" height="50" relative="1" as="geometry">
            <mxPoint x="200" y="584.43" as="sourcePoint" />
            <mxPoint x="540" y="584" as="targetPoint" />
          </mxGeometry>
        </mxCell>
        <mxCell id="56FUEDPAsD5oEL5Eg7jt-34" value="路径数据消耗完毕，再将o_wen=0" style="edgeLabel;html=1;align=center;verticalAlign=middle;resizable=0;points=[];" vertex="1" connectable="0" parent="56FUEDPAsD5oEL5Eg7jt-33">
          <mxGeometry x="0.0095" y="-2" relative="1" as="geometry">
            <mxPoint as="offset" />
          </mxGeometry>
        </mxCell>
        <mxCell id="56FUEDPAsD5oEL5Eg7jt-35" value="t3&lt;br&gt;dmacsec不再收到i_wen" style="text;html=1;strokeColor=none;fillColor=none;align=center;verticalAlign=middle;whiteSpace=wrap;rounded=0;" vertex="1" parent="1">
          <mxGeometry x="140" y="613" width="120" height="30" as="geometry" />
        </mxCell>
        <mxCell id="56FUEDPAsD5oEL5Eg7jt-36" value="" style="rounded=0;whiteSpace=wrap;html=1;fillColor=#f8cecc;strokeColor=#b85450;" vertex="1" parent="1">
          <mxGeometry x="640" y="510" width="40" height="60" as="geometry" />
        </mxCell>
        <mxCell id="56FUEDPAsD5oEL5Eg7jt-37" value="" style="endArrow=none;html=1;rounded=0;exitX=0;exitY=0.5;exitDx=0;exitDy=0;entryX=1;entryY=0.5;entryDx=0;entryDy=0;" edge="1" parent="1" source="56FUEDPAsD5oEL5Eg7jt-36" target="56FUEDPAsD5oEL5Eg7jt-36">
          <mxGeometry width="50" height="50" relative="1" as="geometry">
            <mxPoint x="650" y="555" as="sourcePoint" />
            <mxPoint x="700" y="505" as="targetPoint" />
          </mxGeometry>
        </mxCell>
        <mxCell id="56FUEDPAsD5oEL5Eg7jt-38" value="" style="rounded=0;whiteSpace=wrap;html=1;" vertex="1" parent="1">
          <mxGeometry x="640" y="510" width="40" height="30" as="geometry" />
        </mxCell>
      </root>
    </mxGraphModel>
  </diagram>
</mxfile>
